<svg id="visual" viewBox="0 0 900 600" width="900" height="600" xmlns="http://www.w3.org/2000/svg" xmlns:xlink="http://www.w3.org/1999/xlink" version="1.1"><path d="M791 600L792.5 587.5C794 575 797 550 803 525C809 500 818 475 816.5 450C815 425 803 400 794 375C785 350 779 325 788 300C797 275 821 250 827 225C833 200 821 175 819.5 150C818 125 827 100 827 75C827 50 818 25 813.5 12.5L809 0L900 0L900 12.5C900 25 900 50 900 75C900 100 900 125 900 150C900 175 900 200 900 225C900 250 900 275 900 300C900 325 900 350 900 375C900 400 900 425 900 450C900 475 900 500 900 525C900 550 900 575 900 587.5L900 600Z" fill="#7ab5aa"></path><path d="M638 600L635 587.5C632 575 626 550 600.5 525C575 500 530 475 522.5 450C515 425 545 400 555.5 375C566 350 557 325 585.5 300C614 275 680 250 692 225C704 200 662 175 654.5 150C647 125 674 100 669.5 75C665 50 629 25 611 12.5L593 0L810 0L814.5 12.5C819 25 828 50 828 75C828 100 819 125 820.5 150C822 175 834 200 828 225C822 250 798 275 789 300C780 325 786 350 795 375C804 400 816 425 817.5 450C819 475 810 500 804 525C798 550 795 575 793.5 587.5L792 600Z" fill="#5ba396"></path><path d="M584 600L584 587.5C584 575 584 550 558.5 525C533 500 482 475 471.5 450C461 425 491 400 500 375C509 350 497 325 525.5 300C554 275 623 250 639.5 225C656 200 620 175 611 150C602 125 620 100 617 75C614 50 590 25 578 12.5L566 0L594 0L612 12.5C630 25 666 50 670.5 75C675 100 648 125 655.5 150C663 175 705 200 693 225C681 250 615 275 586.5 300C558 325 567 350 556.5 375C546 400 516 425 523.5 450C531 475 576 500 601.5 525C627 550 633 575 636 587.5L639 600Z" fill="#438f81"></path><path d="M503 600L504.5 587.5C506 575 509 550 489.5 525C470 500 428 475 411.5 450C395 425 404 400 405.5 375C407 350 401 325 428 300C455 275 515 250 540.5 225C566 200 557 175 549.5 150C542 125 536 100 525.5 75C515 50 500 25 492.5 12.5L485 0L567 0L579 12.5C591 25 615 50 618 75C621 100 603 125 612 150C621 175 657 200 640.5 225C624 250 555 275 526.5 300C498 325 510 350 501 375C492 400 462 425 472.5 450C483 475 534 500 559.5 525C585 550 585 575 585 587.5L585 600Z" fill="#37756a"></path><path d="M332 600L329 587.5C326 575 320 550 309.5 525C299 500 284 475 278 450C272 425 275 400 257 375C239 350 200 325 209 300C218 275 275 250 308 225C341 200 350 175 333.5 150C317 125 275 100 260 75C245 50 257 25 263 12.5L269 0L486 0L493.5 12.5C501 25 516 50 526.5 75C537 100 543 125 550.5 150C558 175 567 200 541.5 225C516 250 456 275 429 300C402 325 408 350 406.5 375C405 400 396 425 412.5 450C429 475 471 500 490.5 525C510 550 507 575 505.5 587.5L504 600Z" fill="#357066"></path><path d="M251 600L257 587.5C263 575 275 550 273.5 525C272 500 257 475 245 450C233 425 224 400 206 375C188 350 161 325 168.5 300C176 275 218 250 246.5 225C275 200 290 175 281 150C272 125 239 100 222.5 75C206 50 206 25 206 12.5L206 0L270 0L264 12.5C258 25 246 50 261 75C276 100 318 125 334.5 150C351 175 342 200 309 225C276 250 219 275 210 300C201 325 240 350 258 375C276 400 273 425 279 450C285 475 300 500 310.5 525C321 550 327 575 330 587.5L333 600Z" fill="#37756a"></path><path d="M152 600L150.5 587.5C149 575 146 550 146 525C146 500 149 475 146 450C143 425 134 400 120.5 375C107 350 89 325 80 300C71 275 71 250 78.5 225C86 200 101 175 113 150C125 125 134 100 135.5 75C137 50 131 25 128 12.5L125 0L207 0L207 12.5C207 25 207 50 223.5 75C240 100 273 125 282 150C291 175 276 200 247.5 225C219 250 177 275 169.5 300C162 325 189 350 207 375C225 400 234 425 246 450C258 475 273 500 274.5 525C276 550 264 575 258 587.5L252 600Z" fill="#438f81"></path><path d="M62 600L62 587.5C62 575 62 550 65 525C68 500 74 475 74 450C74 425 68 400 59 375C50 350 38 325 32 300C26 275 26 250 29 225C32 200 38 175 48.5 150C59 125 74 100 80 75C86 50 83 25 81.5 12.5L80 0L126 0L129 12.5C132 25 138 50 136.5 75C135 100 126 125 114 150C102 175 87 200 79.5 225C72 250 72 275 81 300C90 325 108 350 121.5 375C135 400 144 425 147 450C150 475 147 500 147 525C147 550 150 575 151.5 587.5L153 600Z" fill="#5ba396"></path><path d="M0 600L0 587.5C0 575 0 550 0 525C0 500 0 475 0 450C0 425 0 400 0 375C0 350 0 325 0 300C0 275 0 250 0 225C0 200 0 175 0 150C0 125 0 100 0 75C0 50 0 25 0 12.5L0 0L81 0L82.5 12.5C84 25 87 50 81 75C75 100 60 125 49.5 150C39 175 33 200 30 225C27 250 27 275 33 300C39 325 51 350 60 375C69 400 75 425 75 450C75 475 69 500 66 525C63 550 63 575 63 587.5L63 600Z" fill="#7ab5aa"></path></svg>